<svg width="22" height="22" viewBox="0 0 22 22" fill="none" xmlns="http://www.w3.org/2000/svg">
<g id="image">
<path id="Vector 1" d="M18.25 20.25H3.75C2.64543 20.25 1.75 19.3546 1.75 18.25V3.75C1.75 2.64543 2.64543 1.75 3.75 1.75H18.25C19.3546 1.75 20.25 2.64543 20.25 3.75V18.25C20.25 19.3546 19.3546 20.25 18.25 20.25Z" stroke="#121219" stroke-width="2"/>
<path id="Vector" d="M2 15.7565L7.3298 11.1401C8.08435 10.4865 9.20528 10.4894 9.95644 11.1469L19.5 19.5" stroke="#121219" stroke-width="2" stroke-linecap="round" stroke-linejoin="round"/>
<path id="Vector_2" d="M17 6.5C17 5.67157 16.3284 5 15.5 5C14.6716 5 14 5.67157 14 6.5C14 7.32843 14.6716 8 15.5 8C16.3284 8 17 7.32843 17 6.5Z" stroke="#121219" stroke-width="2"/>
</g>
</svg>
