<svg width="22" height="22" viewBox="0 0 22 22" fill="none" xmlns="http://www.w3.org/2000/svg">
<g id="scan">
<path id="Vector 7" d="M6 1.75H3.75C2.64543 1.75 1.75 2.64543 1.75 3.75V6M16 1.75H18.25C19.3546 1.75 20.25 2.64543 20.25 3.75V6M1.75 15.7514V18.25C1.75 19.3546 2.64543 20.25 3.75 20.25H6M20.25 15.7381V18.25C20.25 19.3546 19.3546 20.25 18.25 20.25H16" stroke="#121219" stroke-width="2" stroke-linecap="round"/>
<path id="Vector 6" d="M13 16H9C8.44772 16 8 15.5523 8 15V7C8 6.44772 8.44772 6 9 6H13C13.5523 6 14 6.44772 14 7V15C14 15.5523 13.5523 16 13 16Z" stroke="#121219" stroke-width="2"/>
<path id="Vector 8" d="M20 11L2 11" stroke="#121219" stroke-width="2" stroke-linecap="round" stroke-linejoin="round"/>
</g>
</svg>
